<?xml version="1.0" encoding="UTF-8"?>
<svg xmlns="http://www.w3.org/2000/svg"
     viewBox="0 0 554 554"
     role="img"
     aria-labelledby="title"
     shape-rendering="geometricPrecision">
  <title id="title">Luckfox logo mark</title>
  <g fill="#FFFFFF">
    <path d="
M 78 218
C 87 202 88 181 86 155
L 82 105
C 80 63 92 39 115 32
C 132 27 148 33 166 46
L 262 114
C 271 121 279 121 288 114
L 386 45
C 404 33 421 27 439 32
C 462 39 473 63 471 105
L 467 155
C 465 181 466 202 476 218
C 455 208 434 202 409 198
L 416 102
L 309 177
C 289 191 262 191 241 177
L 134 102
L 141 198
C 116 202 96 208 78 218
Z
"/>
    <path d="
M 15 314
C 46 258 99 220 158 220
C 208 220 249 239 275 268
C 302 239 343 220 397 220
C 456 220 508 258 539 314
C 551 336 536 365 514 366
C 496 367 483 354 473 337
C 456 307 427 289 394 289
C 357 289 325 309 308 341
C 297 361 288 367 275 367
C 262 367 252 360 241 340
C 224 309 193 289 158 289
C 126 289 97 306 80 336
C 70 354 57 367 40 366
C 17 365 3 337 15 314

C 24 333 42 344 65 350
L 159 373
C 168 375 174 379 180 388
L 221 452
C 238 478 252 500 275 501
C 298 500 312 478 329 452
L 370 388
C 376 379 382 375 391 373
L 485 350
C 508 344 526 333 539 314
C 532 347 516 373 487 387
C 480 391 470 394 460 397
L 394 413
C 384 415 379 420 373 429
L 336 486
C 318 514 299 532 275 533
C 250 532 232 514 214 486
L 177 429
C 171 420 166 415 156 413
L 90 397
C 79 394 70 391 62 387
C 34 373 20 347 15 314
Z
"/>
  </g>
</svg>
